<svg width="31" height="26" viewBox="0 0 31 26" fill="none" xmlns="http://www.w3.org/2000/svg">
<path d="M12.4 2.4375C12.4 1.0918 13.4414 0 14.725 0H28.675C29.9586 0 31 1.0918 31 2.4375V23.5625C31 24.9082 29.9586 26 28.675 26H18.4692C18.5564 25.7461 18.6 25.4719 18.6 25.1875V12.8629C19.5009 12.5277 20.15 11.6238 20.15 10.5625V8.9375C20.15 7.5918 19.1086 6.5 17.825 6.5H12.4V2.4375ZM27.6723 17.6363C27.9727 17.3215 27.9727 16.8035 27.6723 16.4887L24.5723 13.2387C24.272 12.9238 23.778 12.9238 23.4777 13.2387L20.3777 16.4887C20.0773 16.8035 20.0773 17.3215 20.3777 17.6363C20.678 17.9512 21.172 17.9512 21.4723 17.6363L23.25 15.7727V21.9375C23.25 22.3844 23.5987 22.75 24.025 22.75C24.4513 22.75 24.8 22.3844 24.8 21.9375V15.7727L26.5777 17.6363C26.878 17.9512 27.372 17.9512 27.6723 17.6363ZM0 8.9375C0 8.49063 0.34875 8.125 0.775 8.125H17.825C18.2512 8.125 18.6 8.49063 18.6 8.9375V10.5625C18.6 11.0094 18.2512 11.375 17.825 11.375H0.775C0.34875 11.375 0 11.0094 0 10.5625V8.9375ZM17.05 13V24.375C17.05 25.2738 16.3573 26 15.5 26H3.1C2.24266 26 1.55 25.2738 1.55 24.375V13H17.05ZM6.975 16.25C6.54875 16.25 6.2 16.6156 6.2 17.0625C6.2 17.5094 6.54875 17.875 6.975 17.875H11.625C12.0512 17.875 12.4 17.5094 12.4 17.0625C12.4 16.6156 12.0512 16.25 11.625 16.25H6.975Z" fill="#DDDDDD"/>
</svg>
