<svg width="23" height="18" viewBox="0 0 23 18" fill="none" xmlns="http://www.w3.org/2000/svg">
<path d="M10.8413 6.57898L9.15898 9.30266L1.21045 7.03153V14.2137C1.20976 14.7909 1.62929 15.2933 2.22516 15.4289L10.8947 17.4737C10.8947 16.7278 10.8413 6.57898 10.8413 6.57898Z" fill="#DDDDDD"/>
<path d="M13.8094 9.38191L12.1052 6.57898L12.2224 17.4737L20.7705 15.4966C21.3733 15.3516 21.793 14.8466 21.7894 14.2704V7.12121L13.8094 9.38191Z" fill="#DDDDDD"/>
<path d="M22.9435 4.75088L20.6755 0.869954C20.5673 0.634253 20.3378 0.49884 20.1012 0.531078L12.1052 1.73328L15.2164 7.48609C15.3445 7.72477 15.5997 7.84008 15.8415 7.76849L22.5873 5.63035C22.7486 5.57972 22.8814 5.45248 22.9501 5.2828C23.0188 5.11312 23.0164 4.91838 22.9435 4.75088Z" fill="#DDDDDD"/>
<path d="M2.33084 0.870301L0.0573019 4.7546C-0.0157813 4.92 -0.0191129 5.11292 0.0482057 5.28131C0.115524 5.44971 0.246558 5.57623 0.405959 5.62675L7.13941 7.76675C7.38151 7.84107 7.63873 7.72932 7.77135 7.49219L10.8947 1.73438L2.89014 0.531131C2.65748 0.498575 2.43218 0.635198 2.33084 0.870301Z" fill="#DDDDDD"/>
</svg>
