<svg width="22" height="22" viewBox="0 0 22 22" fill="none" xmlns="http://www.w3.org/2000/svg">
<path d="M11.5372 8.54131H15.3321C15.7826 8.54131 16.1552 8.91387 16.1552 9.3644V14.3203L14.8555 13.0207C14.6563 12.8214 14.3877 12.7174 14.1191 12.7174C13.8505 12.7174 13.5906 12.8214 13.3826 13.0207C12.9754 13.4279 12.9754 14.0864 13.3826 14.4936L16.4584 17.5694C16.6577 17.7686 16.9263 17.8726 17.1949 17.8726C17.4288 17.8726 17.6627 17.7946 17.8533 17.6387C17.8793 17.6127 17.9053 17.5953 17.9313 17.5694L21.0071 14.4936C21.4143 14.0864 21.4143 13.4279 21.0071 13.0207C20.8078 12.8214 20.5392 12.7174 20.2706 12.7174C20.002 12.7174 19.7421 12.8214 19.5342 13.0207L18.2346 14.3203V9.3644C18.2346 7.76154 16.9349 6.46191 15.3321 6.46191H11.5372C10.9653 6.46191 10.4975 6.92978 10.4975 7.50161C10.4975 8.07345 10.9653 8.54131 11.5372 8.54131Z" fill="#666666"/>
<path d="M10.4628 14.8313H6.66793C6.21739 14.8313 5.84483 14.4587 5.84483 14.0082V9.0523L7.14446 10.3519C7.34373 10.5512 7.61232 10.6552 7.88091 10.6552C8.1495 10.6552 8.40942 10.5512 8.61736 10.3519C9.02457 9.94471 9.02457 9.28623 8.61736 8.87902L5.54159 5.80325C5.34231 5.60397 5.07372 5.5 4.80514 5.5C4.5712 5.5 4.33727 5.57798 4.14666 5.73393C4.12067 5.75993 4.09468 5.77725 4.06868 5.80325L0.992911 8.87902C0.585696 9.28623 0.585696 9.94471 0.992911 10.3519C1.19219 10.5512 1.46078 10.6552 1.72936 10.6552C1.99795 10.6552 2.25788 10.5512 2.46582 10.3519L3.76544 9.0523V14.0082C3.76544 15.6111 5.06506 16.9107 6.66793 16.9107H10.4628C11.0347 16.9107 11.5025 16.4428 11.5025 15.871C11.5025 15.2992 11.0347 14.8313 10.4628 14.8313Z" fill="#666666"/>
</svg>
