<svg width="16" height="20" viewBox="0 0 16 20" fill="none" xmlns="http://www.w3.org/2000/svg">
<g clip-path="url(#clip0_17507_91637)">
<path d="M7.93333 19.9997C6.35399 19.9866 4.81388 19.5062 3.50708 18.6192C2.20029 17.7322 1.18529 16.4782 0.590003 15.0153C-0.00528792 13.5524 -0.154234 11.946 0.161935 10.3985C0.478105 8.85112 1.24524 7.43189 2.36667 6.31973C3.4881 5.20757 4.91364 4.45223 6.46364 4.14892C8.01364 3.8456 9.61874 4.00787 11.0767 4.61528C12.5346 5.22269 13.7801 6.24806 14.6562 7.56218C15.5324 8.87629 15.9999 10.4203 16 11.9997C15.9996 13.0558 15.7902 14.1014 15.3838 15.0762C14.9775 16.0509 14.3822 16.9356 13.6323 17.6793C12.8825 18.423 11.9929 19.0109 11.0148 19.4091C10.0366 19.8074 8.98938 20.0081 7.93333 19.9997ZM5.94934 16.0317C5.94934 16.4241 6.06569 16.8077 6.2837 17.134C6.5017 17.4603 6.81156 17.7146 7.17409 17.8647C7.53662 18.0149 7.93554 18.0542 8.32039 17.9776C8.70525 17.9011 9.05877 17.7121 9.33623 17.4346C9.6137 17.1572 9.80266 16.8037 9.87921 16.4188C9.95577 16.0339 9.91648 15.635 9.76631 15.2725C9.61615 14.91 9.36185 14.6001 9.03559 14.3821C8.70932 14.1641 8.32573 14.0477 7.93333 14.0477C7.41152 14.0614 6.91485 14.2748 6.5458 14.644C6.17675 15.0132 5.96349 15.5099 5.95 16.0317H5.94934ZM6.39733 12.8317C6.40637 12.9646 6.46322 13.0896 6.55735 13.1837C6.65148 13.2779 6.77652 13.3347 6.90934 13.3437H9.022C9.08951 13.3447 9.15653 13.3322 9.2191 13.3068C9.28166 13.2814 9.3385 13.2437 9.38624 13.196C9.43398 13.1482 9.47166 13.0914 9.49704 13.0288C9.52242 12.9663 9.53499 12.8992 9.534 12.8317L9.854 6.94373C9.8614 6.87164 9.85373 6.79879 9.83148 6.72982C9.80922 6.66085 9.77286 6.59726 9.72471 6.5431C9.67657 6.48893 9.61768 6.44537 9.55179 6.41518C9.48591 6.38499 9.41447 6.36883 9.342 6.36773H6.59067C6.5182 6.36883 6.44676 6.38499 6.38088 6.41518C6.31499 6.44537 6.2561 6.48893 6.20795 6.5431C6.15981 6.59726 6.12345 6.66085 6.10119 6.72982C6.07893 6.79879 6.07126 6.87164 6.07867 6.94373L6.39733 12.8317Z" fill="#003976"/>
</g>
<defs>
<clipPath id="clip0_17507_91637">
<rect width="16" height="16" fill="white" transform="translate(0 4)"/>
</clipPath>
</defs>
</svg>
