<svg width="26" height="18" viewBox="0 0 26 18" fill="none" xmlns="http://www.w3.org/2000/svg">
<path d="M9.90642 12.5934C9.90642 12.9006 10.1521 13.1463 10.4592 13.1463H24.7714C25.0171 13.1463 25.2628 12.962 25.3243 12.7163L25.57 11.7949C25.6928 11.3649 25.3857 10.9349 24.8943 10.9349H11.872V8.17079L20.3488 6.88085C20.8402 6.81942 21.3316 6.57372 21.4544 6.02089L22.0687 3.44101C22.1916 2.94961 21.823 2.51963 21.3316 2.51963H11.872V1.10683C11.872 0.738281 11.5035 0.431152 11.1349 0.431152H7.44939C7.01941 0.431152 6.71228 0.799706 6.71228 1.16826V1.65967C6.71228 2.08965 7.08083 2.39677 7.44939 2.39677H9.84499V12.5934H9.90642Z" fill="#666666"/>
<rect x="3.65601" y="4.88696" width="4.57007" height="1.82803" rx="0.914014" fill="#666666"/>
<path d="M24.2187 17.5689C25.2025 17.5689 26.0001 16.7714 26.0001 15.7876C26.0001 14.8038 25.2025 14.0062 24.2187 14.0062C23.2349 14.0062 22.4374 14.8038 22.4374 15.7876C22.4374 16.7714 23.2349 17.5689 24.2187 17.5689Z" fill="#666666"/>
<path d="M10.7665 17.5689C11.7503 17.5689 12.5478 16.7714 12.5478 15.7876C12.5478 14.8038 11.7503 14.0062 10.7665 14.0062C9.78264 14.0062 8.98511 14.8038 8.98511 15.7876C8.98511 16.7714 9.78264 17.5689 10.7665 17.5689Z" fill="#666666"/>
<rect x="1.828" y="7.62891" width="6.3981" height="1.82803" rx="0.914014" fill="#666666"/>
<rect y="10.371" width="8.22613" height="1.82803" rx="0.914014" fill="#666666"/>
</svg>
