<svg width="16" height="16" viewBox="0 0 16 16" fill="none" xmlns="http://www.w3.org/2000/svg">
<g clip-path="url(#clip0_16715_90293)">
<path d="M16 8C16 9.58225 15.5308 11.129 14.6518 12.4446C13.7727 13.7602 12.5233 14.7855 11.0615 15.391C9.59966 15.9965 7.99113 16.155 6.43928 15.8463C4.88743 15.5376 3.46197 14.7757 2.34315 13.6569C1.22433 12.538 0.462403 11.1126 0.153721 9.56072C-0.15496 8.00887 0.00346629 6.40034 0.608967 4.93853C1.21447 3.47672 2.23985 2.22729 3.55544 1.34824C4.87104 0.469192 6.41775 0 8 0C10.1217 0 12.1566 0.842855 13.6569 2.34315C15.1571 3.84344 16 5.87827 16 8ZM7.07467 12.236L13.008 6.30267C13.056 6.25475 13.094 6.19785 13.12 6.13522C13.1459 6.07259 13.1593 6.00546 13.1593 5.93767C13.1593 5.86987 13.1459 5.80274 13.12 5.74011C13.094 5.67749 13.056 5.62059 13.008 5.57267L12.28 4.84067C12.2321 4.79271 12.1752 4.75467 12.1126 4.72871C12.0499 4.70276 11.9828 4.6894 11.915 4.6894C11.8472 4.6894 11.7801 4.70276 11.7175 4.72871C11.6548 4.75467 11.5979 4.79271 11.55 4.84067L6.70934 9.68133L4.44934 7.42133C4.40142 7.37338 4.34452 7.33534 4.28189 7.30938C4.21926 7.28343 4.15213 7.27007 4.08434 7.27007C4.01654 7.27007 3.94941 7.28343 3.88679 7.30938C3.82416 7.33534 3.76726 7.37338 3.71934 7.42133L2.98934 8.15133C2.94138 8.19925 2.90334 8.25615 2.87739 8.31878C2.85143 8.38141 2.83807 8.44854 2.83807 8.51633C2.83807 8.58413 2.85143 8.65126 2.87739 8.71388C2.90334 8.77651 2.94138 8.83341 2.98934 8.88133L6.344 12.236C6.39192 12.284 6.44882 12.322 6.51145 12.348C6.57408 12.3739 6.64121 12.3873 6.709 12.3873C6.7768 12.3873 6.84393 12.3739 6.90656 12.348C6.96918 12.322 7.02608 12.284 7.074 12.236H7.07467Z" fill="#50B085"/>
</g>
<defs>
<clipPath id="clip0_16715_90293">
<rect width="16" height="16" fill="white"/>
</clipPath>
</defs>
</svg>
