<svg width="32" height="21" viewBox="0 0 32 21" fill="none" xmlns="http://www.w3.org/2000/svg">
<path d="M12.139 14.9032C12.139 15.2796 12.44 15.5807 12.8164 15.5807H30.354C30.6551 15.5807 30.9562 15.3548 31.0314 15.0538L31.3325 13.9247C31.4831 13.3979 31.1067 12.871 30.5046 12.871H14.5476V9.48388L24.9347 7.90323C25.5368 7.82796 26.139 7.52689 26.2895 6.84947L27.0422 3.68817C27.1927 3.08602 26.7411 2.55914 26.139 2.55914H14.5476V0.827957C14.5476 0.376344 14.0959 0 13.6443 0H9.1282C8.60132 0 8.22498 0.451613 8.22498 0.903226V1.50538C8.22498 2.03226 8.67659 2.4086 9.1282 2.4086H12.0637V14.9032H12.139Z" fill="#50B085"/>
<rect x="4.48004" y="5.45996" width="5.6" height="2.24" rx="1" fill="#50B085"/>
<path d="M29.6767 21C30.8822 21 31.8595 20.0227 31.8595 18.8172C31.8595 17.6117 30.8822 16.6344 29.6767 16.6344C28.4712 16.6344 27.4939 17.6117 27.4939 18.8172C27.4939 20.0227 28.4712 21 29.6767 21Z" fill="#50B085"/>
<path d="M13.1928 21C14.3983 21 15.3756 20.0227 15.3756 18.8172C15.3756 17.6117 14.3983 16.6344 13.1928 16.6344C11.9873 16.6344 11.01 17.6117 11.01 18.8172C11.01 20.0227 11.9873 21 13.1928 21Z" fill="#50B085"/>
<rect x="2.24005" y="8.81998" width="7.84" height="2.24" rx="1" fill="#50B085"/>
<rect y="12.18" width="10.08" height="2.24" rx="1" fill="#50B085"/>
</svg>
