<svg width="32" height="32" viewBox="0 0 32 32" fill="none" xmlns="http://www.w3.org/2000/svg">
<path d="M21.739 16.6214L14.5207 23.7425C14.3535 23.9074 14.1268 24 13.8905 24C13.6541 24 13.4275 23.9074 13.2603 23.7425V23.7425C13.0936 23.5777 13 23.3543 13 23.1215C13 22.8887 13.0936 22.6653 13.2603 22.5005L19.8231 16L13.2603 9.49954C13.0936 9.33469 13 9.11134 13 8.8785C13 8.64565 13.0936 8.42231 13.2603 8.25745V8.25745C13.4275 8.09261 13.6541 8 13.8905 8C14.1268 8 14.3535 8.09261 14.5207 8.25745L21.739 15.378C21.9061 15.5429 22 15.7665 22 15.9997C22 16.2328 21.9061 16.4565 21.739 16.6214V16.6214Z" fill="#666666"/>
</svg>
