<svg width="28" height="16" viewBox="0 0 28 16" fill="none" xmlns="http://www.w3.org/2000/svg">
<path d="M2.12269 7.92996H7.70458C7.86181 7.92996 7.94043 7.78188 7.94043 7.70785V7.18958C7.94043 7.04151 7.78319 6.96747 7.70458 6.96747H0.235854C0.0786181 6.96747 0 6.8194 0 6.74536V6.2271C0 6.07903 0.157236 6.00499 0.235854 6.00499H8.72661C8.88385 6.00499 8.96247 5.85692 8.96247 5.78288V5.26462C8.96247 5.11655 8.80523 5.04251 8.72661 5.04251H1.33651C1.17927 5.04251 1.10065 4.96847 1.10065 4.8204V4.30214C1.10065 4.15406 1.25789 4.08003 1.33651 4.08003H9.82726C9.9845 4.08003 10.0631 3.93195 10.0631 3.85792V3.11755C10.0631 2.96947 9.90588 2.89543 9.82726 2.89543H0.235854C0.0786181 2.89543 0 2.74736 0 2.67332V2.08103C0 1.93295 0.157236 1.85891 0.235854 1.85891H2.12269V1.34066C2.12269 0.600284 2.83025 0.00798736 3.61643 0.00798736C3.69505 0.00798736 3.69505 0.00798736 3.77367 0.00798736H19.0256C20.1262 -0.0660497 21.2269 0.378172 21.9345 1.19258C22.4848 1.93295 26.5729 7.11555 27.2019 7.85592C27.7522 8.74436 28.0667 9.70685 27.988 10.7434V12.4462C27.988 12.7424 27.7522 12.9645 27.5163 12.9645H26.4943C26.4943 14.6673 25.0792 16 23.271 16C21.4627 16 20.0476 14.6673 20.0476 12.9645H11.1638C11.1638 14.6673 9.74865 16 7.94043 16C6.13221 16 4.71709 14.6673 4.71709 12.9645H3.77367C2.90887 12.9645 2.20131 12.2981 2.20131 11.4837L2.12269 7.92996ZM9.59141 12.8904C9.59141 12.076 8.88385 11.4097 8.01905 11.4097C7.15425 11.4097 6.44668 12.076 6.44668 12.8904C6.44668 13.7049 7.15425 14.3712 8.01905 14.3712C8.88385 14.3712 9.59141 13.7049 9.59141 12.8904ZM22.0917 2.89543H19.4973V6.44921H24.8433L22.0917 2.89543ZM24.8433 12.8904C24.8433 12.076 24.1358 11.4097 23.271 11.4097C22.4062 11.4097 21.6986 12.076 21.6986 12.8904C21.6986 13.7049 22.4062 14.3712 23.271 14.3712C24.1358 14.3712 24.8433 13.7049 24.8433 12.8904Z" fill="#DDDDDD"/>
</svg>
