<svg width="26" height="26" viewBox="0 0 26 26" fill="none" xmlns="http://www.w3.org/2000/svg">
<path fill-rule="evenodd" clip-rule="evenodd" d="M4.25 6.5C3.69772 6.5 3.25 6.94772 3.25 7.5V7.9375C3.25 8.48978 3.69772 8.9375 4.25 8.9375H21.75C22.3023 8.9375 22.75 8.48978 22.75 7.9375V7.5C22.75 6.94772 22.3023 6.5 21.75 6.5H4.25ZM3.25 13.1875C3.25 12.6352 3.69772 12.1875 4.25 12.1875H21.75C22.3023 12.1875 22.75 12.6352 22.75 13.1875V13.625C22.75 14.1773 22.3023 14.625 21.75 14.625H4.25C3.69772 14.625 3.25 14.1773 3.25 13.625V13.1875ZM3.25 18.875C3.25 18.3227 3.69772 17.875 4.25 17.875H21.75C22.3023 17.875 22.75 18.3227 22.75 18.875V19.3125C22.75 19.8648 22.3023 20.3125 21.75 20.3125H4.25C3.69772 20.3125 3.25 19.8648 3.25 19.3125V18.875Z" fill="white"/>
</svg>
