<svg width="15" height="14" viewBox="0 0 15 14" fill="none" xmlns="http://www.w3.org/2000/svg">
<path d="M13.423 5.923H8.577V1.077C8.577 0.791362 8.46353 0.517422 8.26155 0.315445C8.05958 0.113468 7.78564 0 7.5 0C7.21436 0 6.94042 0.113468 6.73845 0.315445C6.53647 0.517422 6.423 0.791362 6.423 1.077V5.923H1.577C1.29136 5.923 1.01742 6.03647 0.815446 6.23845C0.613469 6.44042 0.5 6.71436 0.5 7H0.5C0.5 7.28564 0.613469 7.55958 0.815446 7.76155C1.01742 7.96353 1.29136 8.077 1.577 8.077H6.423V12.923C6.423 13.2086 6.53647 13.4826 6.73845 13.6846C6.94042 13.8865 7.21436 14 7.5 14C7.78564 14 8.05958 13.8865 8.26155 13.6846C8.46353 13.4826 8.577 13.2086 8.577 12.923V8.077H13.423C13.7086 8.077 13.9826 7.96353 14.1846 7.76155C14.3865 7.55958 14.5 7.28564 14.5 7C14.5 6.71436 14.3865 6.44042 14.1846 6.23845C13.9826 6.03647 13.7086 5.923 13.423 5.923Z" fill="white"/>
</svg>
