<svg width="32" height="32" viewBox="0 0 32 32" fill="none" xmlns="http://www.w3.org/2000/svg">
<path d="M30.3059 17.0392H29.6889V13.7451C29.6889 13.1961 29.6118 12.7255 29.3805 12.1765L27.2982 7.62745C27.144 7.23529 26.7584 7 26.2956 7H21.0514V15.3922H1.61697C1.30848 15.3922 1 15.6275 1 16.0196V17.1961C1 17.5098 1.23136 17.8235 1.61697 17.8235H2.92802V18.8431C2.92802 19.1569 3.15938 19.4706 3.54499 19.4706H5.78149C5.78149 21.4314 7.32391 23 9.25193 23C11.1799 23 12.7224 21.4314 12.7224 19.4706H21.7455C21.7455 21.4314 23.2879 23 25.2159 23C27.144 23 28.6864 21.4314 28.6864 19.4706H30.383C30.6915 19.4706 31 19.2353 31 18.8431V17.6667C30.9229 17.2745 30.6144 17.0392 30.3059 17.0392ZM9.17481 21.1961C8.24936 21.1961 7.47815 20.4118 7.47815 19.4706C7.47815 18.5294 8.24936 17.7451 9.17481 17.7451C10.1003 17.7451 10.8715 18.5294 10.8715 19.4706C10.8715 20.4118 10.1003 21.1961 9.17481 21.1961ZM25.1388 21.1961C24.2134 21.1961 23.4422 20.4118 23.4422 19.4706C23.4422 18.5294 24.2134 17.7451 25.1388 17.7451C26.0643 17.7451 26.8355 18.5294 26.8355 19.4706C26.8355 20.4118 26.0643 21.1961 25.1388 21.1961ZM22.8252 12.9608V8.80392H26.0643L27.9152 12.8824L22.8252 12.9608ZM2.92802 9.43137H19.9717V14.2941H2.92802V9.43137Z" fill="#DDDDDD"/>
</svg>
