<svg width="30" height="20" viewBox="0 0 30 20" fill="none" xmlns="http://www.w3.org/2000/svg">
<path d="M3.33333 0C1.49479 0 0 1.49479 0 3.33333V16.6667C0 18.5052 1.49479 20 3.33333 20H26.6667C28.5052 20 30 18.5052 30 16.6667V3.33333C30 1.49479 28.5052 0 26.6667 0H3.33333ZM14.1667 6.66667H25.8333C26.2917 6.66667 26.6667 7.04167 26.6667 7.5C26.6667 7.95833 26.2917 8.33333 25.8333 8.33333H14.1667C13.7083 8.33333 13.3333 7.95833 13.3333 7.5C13.3333 7.04167 13.7083 6.66667 14.1667 6.66667ZM13.3333 12.5C13.3333 12.0417 13.7083 11.6667 14.1667 11.6667H25.8333C26.2917 11.6667 26.6667 12.0417 26.6667 12.5C26.6667 12.9583 26.2917 13.3333 25.8333 13.3333H14.1667C13.7083 13.3333 13.3333 12.9583 13.3333 12.5ZM8.54688 5V5.32812C8.89062 5.39062 9.41146 5.49479 9.64062 5.55729C10.1979 5.70312 10.526 6.27604 10.3802 6.83333C10.2344 7.39062 9.66146 7.71875 9.10417 7.57292C8.90625 7.52083 8.19792 7.38021 7.97396 7.34896C7.33854 7.25 6.81771 7.33333 6.48438 7.48437C6.15625 7.63542 6.07292 7.80729 6.05729 7.90625C6.02604 8.08333 6.05729 8.15104 6.0625 8.16667C6.07812 8.19271 6.11458 8.26042 6.25 8.34896C6.56771 8.56771 7.06771 8.72396 7.80729 8.94271L7.84896 8.95312C8.47917 9.14583 9.32292 9.39583 9.95312 9.85938C10.3021 10.1146 10.6302 10.4531 10.8333 10.9271C11.0417 11.401 11.0833 11.9219 10.9896 12.4583C10.8177 13.4479 10.1615 14.125 9.34375 14.474C9.08854 14.5833 8.82292 14.6615 8.54167 14.7135V15C8.54167 15.5781 8.07292 16.0469 7.49479 16.0469C6.91667 16.0469 6.44792 15.5781 6.44792 15V14.6667C5.95312 14.5521 5.30729 14.3333 4.89583 14.1927C4.80729 14.1615 4.72917 14.1354 4.66667 14.1146C4.11979 13.9323 3.82812 13.3438 4.00521 12.7969C4.18229 12.25 4.77604 11.9583 5.32292 12.1354C5.42708 12.1719 5.53646 12.2083 5.65625 12.2448C6.15104 12.4115 6.70833 12.6042 7.02083 12.6562C7.6875 12.7604 8.20312 12.6927 8.52083 12.5573C8.80729 12.4375 8.90625 12.2812 8.9375 12.099C8.97396 11.8906 8.94271 11.7917 8.92708 11.75C8.90625 11.7031 8.85938 11.6354 8.73438 11.5417C8.42708 11.3177 7.9375 11.151 7.20833 10.9323L7.09375 10.8958C6.48437 10.7135 5.6875 10.474 5.08333 10.0625C4.73958 9.82812 4.39583 9.50521 4.18229 9.04688C3.96354 8.57812 3.91146 8.06771 4.00521 7.53646C4.17188 6.58333 4.84896 5.92708 5.625 5.57292C5.88542 5.45312 6.16146 5.36458 6.45312 5.30729V4.99479C6.45312 4.41667 6.92188 3.94792 7.5 3.94792C8.07812 3.94792 8.54688 4.41667 8.54688 4.99479V5Z" fill="#DDDDDD"/>
</svg>
