<svg width="16" height="16" viewBox="0 0 16 16" fill="none" xmlns="http://www.w3.org/2000/svg">
<g opacity="0.5">
<path d="M8.83321 3.2398C8.58643 3.08348 8.29627 3 7.99943 3C7.60216 3 7.22105 3.14928 6.93981 3.4152C6.65857 3.68099 6.50018 4.04165 6.4993 4.41806C6.49862 4.69921 6.58606 4.97435 6.75047 5.20839C6.91494 5.44256 7.14902 5.62526 7.42303 5.73331C7.6971 5.84124 7.99882 5.86992 8.29006 5.81538C8.5813 5.76097 8.84889 5.62577 9.05904 5.42719C9.26913 5.22862 9.41238 4.97538 9.4705 4.6996C9.52868 4.42382 9.49915 4.13793 9.38569 3.87803C9.27224 3.61813 9.07999 3.396 8.83321 3.2398Z" fill="#666666"/>
<path d="M9.87337 11.8811C9.95371 11.805 9.99892 11.7017 9.99892 11.594L10 10.7823C10 10.6746 9.95486 10.5714 9.87452 10.4953C9.79417 10.4192 9.68518 10.3765 9.57152 10.3765H9.1431V6.99287C9.1431 6.93961 9.13202 6.88686 9.11047 6.83757C9.08891 6.78828 9.05735 6.7436 9.01762 6.70583C8.97782 6.66819 8.93059 6.63823 8.87862 6.61787C8.82659 6.59752 8.77091 6.58702 8.71462 6.58702H6.42841C6.37213 6.58702 6.31645 6.59752 6.26448 6.61787C6.21245 6.63823 6.16522 6.66819 6.12548 6.70583C6.08568 6.7436 6.05413 6.78828 6.03257 6.83757C6.01108 6.88686 6 6.93961 6 6.99287V7.80471C6 7.91238 6.04514 8.01558 6.12548 8.09163C6.20583 8.1678 6.31482 8.21057 6.42841 8.21057H6.8569V10.3765H6.42841C6.31482 10.3765 6.20583 10.4192 6.12548 10.4953C6.07318 10.5448 6.03581 10.6058 6.01608 10.6719C6.00547 10.7075 6 10.7447 6 10.7823V11.594C6 11.7017 6.04514 11.805 6.12548 11.8811C6.20583 11.9572 6.31482 12 6.42841 12H9.57044C9.68409 12 9.79302 11.9572 9.87337 11.8811Z" fill="#666666"/>
</g>
<rect opacity="0.5" x="0.5" y="0.5" width="15" height="15" rx="7.5" stroke="#666666"/>
</svg>
