<svg width="24" height="24" viewBox="0 0 24 24" fill="none" xmlns="http://www.w3.org/2000/svg">
<g clip-path="url(#clip0_17285_93412)" filter="url(#filter0_d_17285_93412)">
<path d="M20 8C20 9.58225 19.5308 11.129 18.6518 12.4446C17.7727 13.7602 16.5233 14.7855 15.0615 15.391C13.5997 15.9965 11.9911 16.155 10.4393 15.8463C8.88743 15.5376 7.46197 14.7757 6.34315 13.6569C5.22433 12.538 4.4624 11.1126 4.15372 9.56072C3.84504 8.00887 4.00347 6.40034 4.60897 4.93853C5.21447 3.47672 6.23985 2.22729 7.55544 1.34824C8.87104 0.469192 10.4178 0 12 0C14.1217 0 16.1566 0.842855 17.6569 2.34315C19.1571 3.84344 20 5.87827 20 8ZM11.0747 12.236L17.008 6.30267C17.056 6.25475 17.094 6.19785 17.12 6.13522C17.1459 6.07259 17.1593 6.00546 17.1593 5.93767C17.1593 5.86987 17.1459 5.80274 17.12 5.74011C17.094 5.67749 17.056 5.62059 17.008 5.57267L16.28 4.84067C16.2321 4.79271 16.1752 4.75467 16.1126 4.72871C16.0499 4.70276 15.9828 4.6894 15.915 4.6894C15.8472 4.6894 15.7801 4.70276 15.7175 4.72871C15.6548 4.75467 15.5979 4.79271 15.55 4.84067L10.7093 9.68133L8.44934 7.42133C8.40142 7.37338 8.34452 7.33534 8.28189 7.30938C8.21926 7.28343 8.15213 7.27007 8.08434 7.27007C8.01654 7.27007 7.94941 7.28343 7.88679 7.30938C7.82416 7.33534 7.76726 7.37338 7.71934 7.42133L6.98934 8.15133C6.94138 8.19925 6.90334 8.25615 6.87739 8.31878C6.85143 8.38141 6.83807 8.44854 6.83807 8.51633C6.83807 8.58413 6.85143 8.65126 6.87739 8.71388C6.90334 8.77651 6.94138 8.83341 6.98934 8.88133L10.344 12.236C10.3919 12.284 10.4488 12.322 10.5115 12.348C10.5741 12.3739 10.6412 12.3873 10.709 12.3873C10.7768 12.3873 10.8439 12.3739 10.9066 12.348C10.9692 12.322 11.0261 12.284 11.074 12.236H11.0747Z" fill="#50B085"/>
</g>
<defs>
<filter id="filter0_d_17285_93412" x="0" y="0" width="24" height="24" filterUnits="userSpaceOnUse" color-interpolation-filters="sRGB">
<feFlood flood-opacity="0" result="BackgroundImageFix"/>
<feColorMatrix in="SourceAlpha" type="matrix" values="0 0 0 0 0 0 0 0 0 0 0 0 0 0 0 0 0 0 127 0" result="hardAlpha"/>
<feOffset dy="4"/>
<feGaussianBlur stdDeviation="2"/>
<feComposite in2="hardAlpha" operator="out"/>
<feColorMatrix type="matrix" values="0 0 0 0 0 0 0 0 0 0 0 0 0 0 0 0 0 0 0.25 0"/>
<feBlend mode="normal" in2="BackgroundImageFix" result="effect1_dropShadow_17285_93412"/>
<feBlend mode="normal" in="SourceGraphic" in2="effect1_dropShadow_17285_93412" result="shape"/>
</filter>
<clipPath id="clip0_17285_93412">
<rect width="16" height="16" fill="white" transform="translate(4)"/>
</clipPath>
</defs>
</svg>
