<svg width="35" height="16" viewBox="0 0 35 16" fill="none" xmlns="http://www.w3.org/2000/svg">
<g opacity="0.5">
<path d="M8.26172 11V5.28906H9.47266V11H8.26172ZM15.9766 11H14.4375L11.9531 6.67969H11.918C11.9674 7.44271 11.9922 7.98698 11.9922 8.3125V11H10.9102V5.28906H12.4375L14.918 9.56641H14.9453C14.9062 8.82422 14.8867 8.29948 14.8867 7.99219V5.28906H15.9766V11ZM18.6094 11H17.418V5.28906H20.6914V6.28125H18.6094V7.75391H20.5469V8.74219H18.6094V11ZM26.9922 8.13672C26.9922 9.08203 26.7578 9.80859 26.2891 10.3164C25.8203 10.8242 25.1484 11.0781 24.2734 11.0781C23.3984 11.0781 22.7266 10.8242 22.2578 10.3164C21.7891 9.80859 21.5547 9.07943 21.5547 8.12891C21.5547 7.17839 21.7891 6.45312 22.2578 5.95312C22.7292 5.45052 23.4036 5.19922 24.2812 5.19922C25.1589 5.19922 25.8294 5.45182 26.293 5.95703C26.7591 6.46224 26.9922 7.1888 26.9922 8.13672ZM22.8242 8.13672C22.8242 8.77474 22.9453 9.25521 23.1875 9.57812C23.4297 9.90104 23.7917 10.0625 24.2734 10.0625C25.2396 10.0625 25.7227 9.42057 25.7227 8.13672C25.7227 6.85026 25.2422 6.20703 24.2812 6.20703C23.7995 6.20703 23.4362 6.36979 23.1914 6.69531C22.9466 7.01823 22.8242 7.4987 22.8242 8.13672Z" fill="#666666"/>
<rect x="0.5" y="0.5" width="34" height="15" rx="2.5" stroke="#666666"/>
</g>
</svg>
