<svg width="33" height="22" viewBox="0 0 33 22" fill="none" xmlns="http://www.w3.org/2000/svg">
<path d="M12.5734 15.4367C12.5734 15.8266 12.8852 16.1384 13.2751 16.1384H31.4405C31.7524 16.1384 32.0642 15.9045 32.1422 15.5927L32.454 14.4232C32.61 13.8775 32.2202 13.3317 31.5964 13.3317H15.0682V9.82339L25.8272 8.18616C26.4509 8.10819 27.0746 7.79634 27.2305 7.09467L28.0101 3.82021C28.1661 3.1965 27.6983 2.65076 27.0746 2.65076H15.0682V0.857597C15.0682 0.389817 14.6004 0 14.1326 0H9.45485C8.9091 0 8.51929 0.46778 8.51929 0.93556V1.55927C8.51929 2.10501 8.98707 2.49483 9.45485 2.49483H12.4954V15.4367H12.5734Z" fill="#DDDDDD"/>
<rect x="4.64038" y="5.65552" width="5.80048" height="2.32019" rx="1" fill="#DDDDDD"/>
<path d="M30.739 21.7519C31.9876 21.7519 32.9999 20.7396 32.9999 19.4909C32.9999 18.2422 31.9876 17.23 30.739 17.23C29.4903 17.23 28.478 18.2422 28.478 19.4909C28.478 20.7396 29.4903 21.7519 30.739 21.7519Z" fill="#DDDDDD"/>
<path d="M13.6652 21.7519C14.9139 21.7519 15.9262 20.7396 15.9262 19.4909C15.9262 18.2422 14.9139 17.23 13.6652 17.23C12.4166 17.23 11.4043 18.2422 11.4043 19.4909C11.4043 20.7396 12.4166 21.7519 13.6652 21.7519Z" fill="#DDDDDD"/>
<rect x="2.32031" y="9.13574" width="8.12066" height="2.32019" rx="1" fill="#DDDDDD"/>
<rect y="12.6161" width="10.4409" height="2.32019" rx="1" fill="#DDDDDD"/>
</svg>
