<svg width="32" height="32" viewBox="0 0 32 32" fill="none" xmlns="http://www.w3.org/2000/svg">
<path d="M19.8487 24.862C19.8485 24.2411 20.0324 23.6341 20.3772 23.1178C20.722 22.6015 21.2122 22.199 21.7858 21.9612C22.3593 21.7235 22.9905 21.6612 23.5995 21.7822C24.2084 21.9032 24.7678 22.2021 25.2069 22.6411C25.646 23.08 25.9451 23.6393 26.0663 24.2483C26.1875 24.8572 26.1254 25.4884 25.8878 26.062C25.6503 26.6357 25.248 27.126 24.7317 27.4709C24.2155 27.8159 23.6086 28 22.9877 28C22.575 28.0019 22.1661 27.922 21.7845 27.7649C21.4029 27.6079 21.0561 27.3769 20.7643 27.0851C20.4725 26.7934 20.2413 26.4467 20.0841 26.0651C19.927 25.6836 19.847 25.2747 19.8487 24.862ZM10.0547 24.862C10.0545 24.2411 10.2384 23.6341 10.5832 23.1178C10.928 22.6015 11.4182 22.199 11.9918 21.9612C12.5653 21.7235 13.1965 21.6612 13.8055 21.7822C14.4144 21.9032 14.9738 22.2021 15.4129 22.6411C15.852 23.08 16.1511 23.6393 16.2723 24.2483C16.3935 24.8572 16.3314 25.4884 16.0938 26.062C15.8563 26.6357 15.454 27.126 14.9377 27.4709C14.4215 27.8159 13.8146 28 13.1937 28C12.781 28.0019 12.3721 27.922 11.9905 27.7649C11.6089 27.6079 11.2621 27.3769 10.9703 27.0851C10.6785 26.7934 10.4473 26.4467 10.2901 26.0651C10.133 25.6836 10.053 25.2747 10.0547 24.862ZM12.9547 20.623C12.1617 20.6318 11.3866 20.3875 10.742 19.9254C10.0974 19.4634 9.61705 18.8078 9.37069 18.054L6.23169 8.13902C6.14771 7.86206 5.97492 7.62044 5.73996 7.45146C5.50501 7.28247 5.22097 7.19552 4.93169 7.20402H2.54269C2.1255 7.1859 1.73162 7.00659 1.444 6.70386C1.15637 6.40113 0.997447 5.99859 1.00069 5.58102C0.994511 5.37501 1.02988 5.16987 1.10469 4.97783C1.1795 4.78578 1.29222 4.61077 1.43612 4.46323C1.58003 4.31569 1.75217 4.19863 1.94228 4.11905C2.1324 4.03947 2.33659 3.99899 2.54269 4.00002H4.93469C8.21069 4.00002 8.96869 6.13702 9.41269 7.53802L9.78769 8.67202H28.8227C28.9808 8.671 29.137 8.70658 29.2791 8.77598C29.4212 8.84537 29.5453 8.94669 29.6417 9.07202C29.7448 9.1951 29.8119 9.3443 29.8356 9.50313C29.8592 9.66196 29.8385 9.82423 29.7757 9.97202L27.2857 18.017C27.0504 18.7799 26.5739 19.4458 25.9278 19.9146C25.2817 20.3835 24.5009 20.63 23.7027 20.617L12.9547 20.623Z" fill="#DDDDDD"/>
</svg>
