<svg width="22" height="22" viewBox="0 0 22 22" fill="none" xmlns="http://www.w3.org/2000/svg">
<path d="M16.8842 4.125H12.782C12.2415 4.125 11.7994 4.56716 11.7994 5.10758C11.7994 5.648 12.2415 6.09016 12.782 6.09016H14.5178L4.41363 16.1862C4.02879 16.571 4.02879 17.1933 4.41363 17.5782C4.60196 17.7665 4.85579 17.8648 5.10963 17.8648C5.36346 17.8648 5.60911 17.7665 5.80562 17.5782L15.9098 7.47397V9.20986C15.9098 9.75028 16.352 10.1924 16.8924 10.1924C17.4328 10.1924 17.875 9.75028 17.875 9.20986V5.10758C17.8668 4.56716 17.4328 4.125 16.8842 4.125Z" fill="black"/>
<path d="M16.8842 11.8383C16.3438 11.8383 15.9016 12.2804 15.9016 12.8208V14.5567L13.0603 11.7072L11.6683 13.0992L14.5096 15.9405H12.7819C12.2415 15.9405 11.7993 16.3827 11.7993 16.9231C11.7993 17.4635 12.2415 17.9057 12.7819 17.9057H16.8842C17.4246 17.9057 17.8668 17.4635 17.8668 16.9231V12.8208C17.8668 12.2722 17.4328 11.8383 16.8842 11.8383Z" fill="black"/>
<path d="M8.89257 10.3234L10.2846 8.93139L5.80562 4.45245C5.42078 4.06761 4.79848 4.06761 4.41363 4.45245C4.02879 4.8373 4.02879 5.4596 4.41363 5.84444L8.89257 10.3234Z" fill="#003976"/>
</svg>
