<svg width="32" height="32" viewBox="0 0 32 32" fill="none" xmlns="http://www.w3.org/2000/svg">
<g clip-path="url(#clip0_17930_100511)">
<path d="M6.5 25.75C6.5 26.3467 6.73705 26.919 7.15901 27.341C7.58097 27.7629 8.15326 28 8.75 28H22.25C22.8467 28 23.419 27.7629 23.841 27.341C24.2629 26.919 24.5 26.3467 24.5 25.75V10H6.5V25.75ZM19.25 13.75C19.25 13.5511 19.329 13.3603 19.4697 13.2197C19.6103 13.079 19.8011 13 20 13C20.1989 13 20.3897 13.079 20.5303 13.2197C20.671 13.3603 20.75 13.5511 20.75 13.75V24.25C20.75 24.4489 20.671 24.6397 20.5303 24.7803C20.3897 24.921 20.1989 25 20 25C19.8011 25 19.6103 24.921 19.4697 24.7803C19.329 24.6397 19.25 24.4489 19.25 24.25V13.75ZM14.75 13.75C14.75 13.5511 14.829 13.3603 14.9697 13.2197C15.1103 13.079 15.3011 13 15.5 13C15.6989 13 15.8897 13.079 16.0303 13.2197C16.171 13.3603 16.25 13.5511 16.25 13.75V24.25C16.25 24.4489 16.171 24.6397 16.0303 24.7803C15.8897 24.921 15.6989 25 15.5 25C15.3011 25 15.1103 24.921 14.9697 24.7803C14.829 24.6397 14.75 24.4489 14.75 24.25V13.75ZM10.25 13.75C10.25 13.5511 10.329 13.3603 10.4697 13.2197C10.6103 13.079 10.8011 13 11 13C11.1989 13 11.3897 13.079 11.5303 13.2197C11.671 13.3603 11.75 13.5511 11.75 13.75V24.25C11.75 24.4489 11.671 24.6397 11.5303 24.7803C11.3897 24.921 11.1989 25 11 25C10.8011 25 10.6103 24.921 10.4697 24.7803C10.329 24.6397 10.25 24.4489 10.25 24.25V13.75ZM25.25 5.5H19.625L19.184 4.623C19.0907 4.43581 18.947 4.27834 18.7691 4.16829C18.5912 4.05824 18.3862 3.99996 18.177 4H12.819C12.6107 3.99976 12.4065 4.05803 12.2297 4.16818C12.0529 4.27833 11.9106 4.43592 11.819 4.623L11.375 5.5H5.75C5.55109 5.5 5.36032 5.57902 5.21967 5.71967C5.07902 5.86032 5 6.05109 5 6.25V7.75C5 7.94891 5.07902 8.13968 5.21967 8.28033C5.36032 8.42098 5.55109 8.5 5.75 8.5H25.25C25.4489 8.5 25.6397 8.42098 25.7803 8.28033C25.921 8.13968 26 7.94891 26 7.75V6.25C26 6.05109 25.921 5.86032 25.7803 5.71967C25.6397 5.57902 25.4489 5.5 25.25 5.5Z" fill="#DDDDDD"/>
</g>
<defs>
<clipPath id="clip0_17930_100511">
<rect width="21" height="24" fill="white" transform="translate(5 4)"/>
</clipPath>
</defs>
</svg>
